<svg version="1" xmlns="http://www.w3.org/2000/svg" width="400" height="400" viewBox="0 0 300.000000 300.000000"><path d="M146 14C67.6 21.5 2.7 28 1.7 28.5.1 29.2 0 36.6 0 164.6V300h3.3c7.2 0 289.5-27.1 293-28.2l3.7-1.1V0l-5.7.1C291.1.2 224.4 6.4 146 14zm33.2 26.5c24.2 4.2 39.8 13.1 49.4 28 4.5 7.1 8.6 17.9 7.3 19.2-.6.6-.6 2.8.2 6.2.6 2.9.9 5.4.7 5.6-.2.3-12.8 1.2-27.9 2.1-20.8 1.2-27.7 1.9-28.5 3-1.6 2-3.4 1.7-3.4-.6 0-1.1-.8-3.9-1.7-6.2-3.6-9.2-8.6-14.2-17.2-17.5-2.5-.9-5.1-2.4-5.7-3.1-.8-1.1-3-1.4-10-1-13.2.7-19.8 4.7-22.5 13.8-1.2 4-.6 9 1.1 9 .6 0 2.4 1.6 4.1 3.5 3.9 4.3 9.7 6.5 30.9 11.4 43.5 10.1 63 18.5 76 32.8 6.5 7.2 14.1 21.9 12.2 23.8-.4.4-.5 5.9-.4 12.3.5 14.3-1.2 22.3-6.9 33.9-9.9 20-29.4 33.5-56.4 39-7.3 1.4-13.6 1.8-33 1.8-15.5-.1-24.3.3-24.7 1-.5.5-.8.1-.8-1 0-1.7-.2-1.8-1.1-.5-.9 1.2-1.2 1.3-1.6.1-.4-.9-.7-1-1.2-.2-1.1 1.7-18.3-3-27.4-7.4-18.7-9.1-32.8-29.9-37.1-54.8-.8-4.5-1.3-8.4-1-8.6.7-.7 62.5-4.3 63.1-3.7.3.3 0 1.2-.7 2.1-1.6 1.9-.5 8.4 1.6 9.2.8.3 2.3 2.5 3.3 4.8 2.8 6.3 9.5 13 16 16.2 4.5 2.1 7.4 2.8 14.7 3.1 11.6.5 18.8-1.4 24.5-6.5 5.4-4.9 6.9-8.1 6.9-14.8 0-6.4-1.4-9.7-6.2-14.1-6-5.7-14.4-8.9-39.1-14.9-25.3-6.1-42.4-13.1-54.6-22.3-27.4-20.7-29.3-59.4-4.2-84.2 13.2-13 29.4-19.5 54.9-22 11.8-1.2 35.8-.4 46.4 1.5z"/></svg>